<?xml version="1.0" encoding="UTF-8" standalone="no"?>
<!-- Created with Inkscape (http://www.inkscape.org/) -->

<svg
   viewBox="0 0 48 48"
   version="1.1"
   id="svg5"
   xmlns:xlink="http://www.w3.org/1999/xlink"
   xmlns="http://www.w3.org/2000/svg"
   xmlns:svg="http://www.w3.org/2000/svg">
  <defs
     id="defs2">
    <linearGradient
       xlink:href="#linearGradient5008"
       id="linearGradient5010"
       x1="74.818756"
       y1="90.931267"
       x2="81.356148"
       y2="112.48212"
       gradientUnits="userSpaceOnUse" />
    <linearGradient
       id="linearGradient5008">
      <stop
         style="stop-color:#e15013;stop-opacity:1"
         offset="0"
         id="stop5004" />
      <stop
         style="stop-color:#c03307;stop-opacity:1"
         offset="1"
         id="stop5006" />
    </linearGradient>
    <linearGradient
       xlink:href="#linearGradient5766"
       id="linearGradient5768"
       x1="82.990997"
       y1="90.931259"
       x2="89.341003"
       y2="112.48212"
       gradientUnits="userSpaceOnUse" />
    <linearGradient
       id="linearGradient5766">
      <stop
         style="stop-color:#56b60e;stop-opacity:1"
         offset="0"
         id="stop5762" />
      <stop
         style="stop-color:#147f10;stop-opacity:1"
         offset="1"
         id="stop5764" />
    </linearGradient>
    <linearGradient
       xlink:href="#linearGradient2376"
       id="linearGradient6318"
       x1="90.940994"
       y1="96.39151"
       x2="100.45358"
       y2="111.9462"
       gradientUnits="userSpaceOnUse" />
    <linearGradient
       id="linearGradient2376">
      <stop
         style="stop-color:#0668bb;stop-opacity:1"
         offset="0"
         id="stop2372" />
      <stop
         style="stop-color:#114b8d;stop-opacity:1"
         offset="1"
         id="stop2374" />
    </linearGradient>
  </defs>
  <g
     id="layer1">
    <g
       id="g6851"
       transform="matrix(1.8897206,0,0,1.8897206,-141.8292,-168.02017)">
      <path
         d="m 77.43425,114.31299 c -0.322461,0 -0.628386,-0.062 -0.917774,-0.18602 -0.289388,-0.12403 -0.545703,-0.29353 -0.768945,-0.5085 -0.214974,-0.22324 -0.384474,-0.47956 -0.508498,-0.76894 C 75.11501,112.56013 75.053,112.25421 75.053,111.93174 V 91.29425 c 0,-0.322461 0.06201,-0.628386 0.186033,-0.917774 0.124024,-0.289388 0.293524,-0.54157 0.508498,-0.756544 0.223242,-0.223242 0.479557,-0.396875 0.768945,-0.520898 C 76.805864,88.97501 77.111789,88.913 77.43425,88.913 h 1.5875 c 0.322461,0 0.628385,0.06201 0.917773,0.186034 0.289388,0.124023 0.541568,0.297656 0.756542,0.520898 0.223242,0.214974 0.396875,0.467156 0.520898,0.756544 0.124024,0.289388 0.186037,0.595313 0.186037,0.917774 v 20.63749 c 0,0.32247 -0.06201,0.62839 -0.186037,0.91779 -0.124023,0.28938 -0.297656,0.5457 -0.520898,0.76894 -0.214974,0.21497 -0.467154,0.38447 -0.756542,0.5085 -0.289388,0.12402 -0.595312,0.18602 -0.917773,0.18602 z"
         style="fill:url(#linearGradient5010);fill-opacity:1;stroke-width:0.0700042"
         id="path3679" />
      <path
         d="m 85.37225,114.31299 c -0.322461,0 -0.628386,-0.062 -0.917774,-0.18602 -0.289388,-0.12403 -0.545703,-0.29353 -0.768945,-0.5085 -0.214974,-0.22324 -0.384474,-0.47956 -0.508498,-0.76894 C 83.05301,112.56013 82.991,112.25421 82.991,111.93174 V 91.29425 c 0,-0.322461 0.06201,-0.628386 0.186033,-0.917774 0.124024,-0.289388 0.293524,-0.54157 0.508498,-0.756544 0.223242,-0.223242 0.479557,-0.396875 0.768945,-0.520898 C 84.743864,88.97501 85.049789,88.913 85.37225,88.913 h 1.5875 c 0.322461,0 0.628385,0.06201 0.917773,0.186034 0.289388,0.124023 0.541568,0.297656 0.756542,0.520898 0.223242,0.214974 0.396875,0.467156 0.520898,0.756544 0.124024,0.289388 0.186037,0.595313 0.186037,0.917774 v 20.63749 c 0,0.32247 -0.06201,0.62839 -0.186037,0.91779 -0.124023,0.28938 -0.297656,0.5457 -0.520898,0.76894 -0.214974,0.21497 -0.467154,0.38447 -0.756542,0.5085 -0.289388,0.12402 -0.595312,0.18602 -0.917773,0.18602 z"
         style="fill:url(#linearGradient5768);fill-opacity:1;stroke-width:0.0700042"
         id="path3679-0" />
      <path
         d="m 90.941,96.391513 c 0,-0.545703 0.157096,-1.02526 0.471289,-1.438672 0.322461,-0.413411 0.74414,-0.698664 1.265039,-0.85576 0.297656,-0.09095 0.60358,-0.186034 0.917773,-0.28525 0.31419,-0.09922 0.628386,-0.148831 0.942578,-0.148831 0.272849,0 0.533297,0.04961 0.781349,0.148831 0.256313,0.09095 0.48369,0.219104 0.682125,0.384469 0.206709,0.165364 0.380341,0.363802 0.520901,0.595312 0.148828,0.223245 0.256315,0.467154 0.322461,0.731737 l 3.547065,15.440921 c 0.0413,0.19017 0.062,0.36793 0.062,0.5333 0,0.55397 -0.16536,1.0418 -0.496088,1.46348 -0.322459,0.41341 -0.748274,0.69453 -1.277438,0.84336 -0.347271,0.0992 -0.706935,0.20671 -1.079008,0.32246 -0.363802,0.11575 -0.731734,0.17363 -1.103807,0.17363 -0.28112,0 -0.549836,-0.0455 -0.806151,-0.13642 -0.256318,-0.0992 -0.487825,-0.23151 -0.694531,-0.39688 -0.206706,-0.16537 -0.384474,-0.3638 -0.5333,-0.59531 -0.140562,-0.23978 -0.239781,-0.4961 -0.297656,-0.76895 l -3.175,-15.540133 c -0.03307,-0.140562 -0.04961,-0.297661 -0.04961,-0.471294 z"
         style="fill:url(#linearGradient6318);fill-opacity:1;stroke-width:0.0700042"
         id="path3855" />
    </g>
  </g>
</svg>
