<?xml version="1.0" encoding="UTF-8" standalone="no"?>
<!-- Created with Inkscape (http://www.inkscape.org/) -->

<svg
   viewBox="0 0 48 48"
   version="1.1"
   id="svg5"
   xmlns:xlink="http://www.w3.org/1999/xlink"
   xmlns="http://www.w3.org/2000/svg"
   xmlns:svg="http://www.w3.org/2000/svg">
  <defs
     id="defs2">
    <linearGradient
       xlink:href="#linearGradient2002"
       id="linearGradient2004"
       x1="35.001781"
       y1="213.82669"
       x2="44.475952"
       y2="236.7226"
       gradientUnits="userSpaceOnUse"
       gradientTransform="translate(-0.26516399,-0.39120141)" />
    <linearGradient
       id="linearGradient2002">
      <stop
         style="stop-color:#c3c9cd;stop-opacity:1"
         offset="0"
         id="stop1998" />
      <stop
         style="stop-color:#ffffff;stop-opacity:1"
         offset="1"
         id="stop2000" />
    </linearGradient>
    <linearGradient
       xlink:href="#linearGradient1443"
       id="linearGradient1445"
       x1="30.75289"
       y1="201.75726"
       x2="47.372108"
       y2="249.25969"
       gradientUnits="userSpaceOnUse" />
    <linearGradient
       id="linearGradient1443">
      <stop
         style="stop-color:#8b9299;stop-opacity:1"
         offset="0"
         id="stop1439" />
      <stop
         style="stop-color:#63707b;stop-opacity:1"
         offset="1"
         id="stop1441" />
    </linearGradient>
    <linearGradient
       xlink:href="#linearGradient2376"
       id="linearGradient2378"
       x1="87.8992"
       y1="224.72334"
       x2="94.82328"
       y2="239.32935"
       gradientUnits="userSpaceOnUse"
       gradientTransform="translate(-51.690154,-6.5507734)" />
    <linearGradient
       id="linearGradient2376">
      <stop
         style="stop-color:#0668bb;stop-opacity:1"
         offset="0"
         id="stop2372" />
      <stop
         style="stop-color:#114b8d;stop-opacity:1"
         offset="1"
         id="stop2374" />
    </linearGradient>
  </defs>
  <g
     id="layer1">
    <g
       id="g2941"
       transform="matrix(0.94982883,0,0,0.95999998,-13.11831,-192.51971)">
      <rect
         style="fill:url(#linearGradient2004);fill-opacity:1;stroke:#636363;stroke-width:0;stroke-miterlimit:10"
         id="rect542"
         width="28.159332"
         height="28.159332"
         x="24.999281"
         y="211.4617" />
      <path
         style="fill:url(#linearGradient1445);fill-opacity:1;stroke-width:0.264583"
         d="m 27.826704,248.16622 c -1.305591,-0.6532 -3.07019,-1.73574 -3.921334,-2.40567 -1.715272,-1.35006 -1.687094,-1.18878 -0.689604,-3.94733 1.08822,-3.00947 0.272147,-6.24277 -2.181953,-8.64495 -1.393428,-1.36395 -3.559233,-2.33526 -5.207122,-2.33526 -0.688102,0 -1.167151,-0.17651 -1.511427,-0.55691 -0.452099,-0.49954 -0.504028,-0.99964 -0.504028,-4.85401 0,-4.70271 0.132556,-5.17241 1.459735,-5.17241 0.403416,0 1.540634,-0.24931 2.527152,-0.55401 1.487278,-0.45937 2.053542,-0.81388 3.314991,-2.07533 1.29305,-1.29305 1.608042,-1.80683 2.099289,-3.42415 0.6449,-2.1232 0.577413,-3.41432 -0.298987,-5.72011 -0.276625,-0.7278 -0.503016,-1.53188 -0.50309,-1.78684 -2.85e-4,-0.99258 6.612911,-4.96039 8.267544,-4.96039 0.440651,0 0.872657,0.34952 1.457444,1.17916 3.35066,4.75362 10.394193,4.74615 13.813133,-0.0146 0.54901,-0.76449 1.03445,-1.16452 1.41314,-1.16452 0.88596,0 5.15869,2.22726 6.89093,3.59206 1.71523,1.35139 1.68706,1.19011 0.68961,3.94857 -1.78107,4.92551 1.73653,10.3584 7.06261,10.9081 2.20666,0.22775 2.34192,0.55362 2.34192,5.64219 0,4.53196 -0.14014,5.01324 -1.45974,5.01324 -0.40342,0 -1.54063,0.24931 -2.52715,0.55401 -1.48728,0.45937 -2.05354,0.81388 -3.31499,2.07533 -1.29305,1.29305 -1.60805,1.80683 -2.09929,3.42415 -0.6449,2.1232 -0.57742,3.41432 0.29899,5.72012 0.27662,0.7278 0.50301,1.53187 0.50308,1.78684 2.7e-4,0.99257 -6.61291,4.96039 -8.26754,4.96039 -0.44065,0 -0.87266,-0.34952 -1.45744,-1.17917 -3.35066,-4.75362 -10.394191,-4.74615 -13.813134,0.0146 -0.556118,0.77438 -1.032727,1.16452 -1.422617,1.16452 -0.322477,0 -1.654533,-0.53443 -2.960122,-1.18762 z m 14.101583,-10.32377 c 2.43696,-0.57457 4.20361,-1.57797 6.07748,-3.45185 4.9856,-4.9856 4.96867,-12.72984 -0.0388,-17.73729 -5.02607,-5.02607 -12.750012,-5.02607 -17.776082,0 -5.007454,5.00745 -5.024388,12.75169 -0.03879,17.73729 3.259564,3.25957 7.419666,4.47898 11.776172,3.45185 z"
         id="path57" />
      <circle
         style="fill:url(#linearGradient2378);fill-opacity:1;stroke:#636363;stroke-width:0;stroke-miterlimit:10"
         id="path336"
         cx="39.078945"
         cy="225.54137"
         r="8.3964996" />
    </g>
  </g>
</svg>
