<?xml version="1.0" encoding="UTF-8" standalone="no"?>
<svg
   width="32"
   height="32"
   overflow="hidden"
   version="1.1"
   id="svg47"
   sodipodi:docname="隐藏 Clippy.svg"
   inkscape:version="1.1.2 (b8e25be833, 2022-02-05)"
   xmlns:inkscape="http://www.inkscape.org/namespaces/inkscape"
   xmlns:sodipodi="http://sodipodi.sourceforge.net/DTD/sodipodi-0.dtd"
   xmlns="http://www.w3.org/2000/svg"
   xmlns:svg="http://www.w3.org/2000/svg">
  <sodipodi:namedview
     id="namedview49"
     pagecolor="#ffffff"
     bordercolor="#666666"
     borderopacity="1.0"
     inkscape:pageshadow="2"
     inkscape:pageopacity="0.0"
     inkscape:pagecheckerboard="0"
     showgrid="false"
     width="32px"
     inkscape:zoom="3.5582879"
     inkscape:cx="228.05912"
     inkscape:cy="96.816225"
     inkscape:window-width="1920"
     inkscape:window-height="991"
     inkscape:window-x="-9"
     inkscape:window-y="-9"
     inkscape:window-maximized="1"
     inkscape:current-layer="svg47" />
  <defs
     id="defs33">
    <clipPath
       id="clip0">
      <rect
         x="187"
         y="230"
         width="1133"
         height="925"
         id="rect30" />
    </clipPath>
  </defs>
  <g
     clip-path="url(#clip0)"
     transform="matrix(0.06447217,0,0,0.06447217,-35.073927,-25.221916)"
     id="g45">
    <path
       d="m 309.16,-370.82 c 1.862,0 3.688,0.143 5.479,0.429 1.79,0.287 3.545,0.573 5.263,0.86 16.901,3.58 30.114,10.814 39.639,21.699 9.525,10.885 14.287,25.137 14.287,42.754 0,6.588 -0.609,13.07 -1.826,19.443 -1.218,6.374 -2.829,12.712 -4.834,19.014 -6.302,19.479 -11.172,39.495 -14.609,60.049 -3.438,20.553 -5.157,41.071 -5.157,61.552 0,5.586 0.287,11.172 0.86,16.758 0.573,5.586 1.217,11.172 1.933,16.758 0.716,5.586 1.361,11.136 1.934,16.6505 0.573,5.5143 0.859,11.0645 0.859,16.6504 0,5.8724 -0.608,11.4583 -1.826,16.7578 -1.217,5.2995 -3.187,9.9186 -5.908,13.8574 -2.721,3.9388 -6.374,7.0541 -10.957,9.3457 -4.583,2.2917 -10.169,3.4375 -16.758,3.4375 -8.164,0 -15.146,-1.8262 -20.947,-5.4785 -5.801,-3.6523 -10.742,-8.4863 -14.824,-14.502 -4.083,-6.0156 -7.341,-12.819 -9.776,-20.4101 -2.435,-7.5911 -4.333,-15.3613 -5.693,-23.3106 -1.361,-7.9491 -2.256,-15.7191 -2.686,-23.3101 -0.429,-7.592 -0.644,-14.323 -0.644,-20.196 0,-2.578 -0.036,-5.478 -0.108,-8.701 -0.071,-3.223 0.215,-6.266 0.86,-9.131 0.644,-2.864 1.862,-5.263 3.652,-7.197 1.79,-1.934 4.548,-2.9 8.272,-2.9 3.294,0 5.944,1.289 7.949,3.867 2.005,2.578 3.008,5.371 3.008,8.379 0,2.721 -0.072,5.442 -0.215,8.164 -0.144,2.721 -0.215,5.514 -0.215,8.379 0,3.294 0.107,7.627 0.322,12.998 0.215,5.371 0.716,11.136 1.504,17.295 0.788,6.158 1.862,12.389 3.223,18.691 1.36,6.3021 3.222,11.9597 5.586,16.9727 2.363,5.013 5.227,9.1309 8.593,12.3535 3.366,3.2227 7.412,4.834 12.139,4.834 3.008,0 5.371,-0.6087 7.09,-1.8262 1.719,-1.2174 2.936,-2.7929 3.652,-4.7265 0.716,-1.9336 1.146,-4.0821 1.289,-6.4454 0.144,-2.3632 0.215,-4.7623 0.215,-7.1972 0,-5.5859 -0.286,-11.1003 -0.859,-16.543 -0.573,-5.4429 -1.218,-10.9569 -1.934,-16.5429 -0.716,-5.586 -1.361,-11.172 -1.933,-16.758 -0.573,-5.586 -0.86,-11.315 -0.86,-17.187 0,-10.313 0.466,-20.983 1.397,-32.012 0.931,-11.029 2.327,-22.057 4.189,-33.086 1.862,-11.029 4.046,-21.914 6.553,-32.656 2.506,-10.742 5.407,-21.055 8.701,-30.938 1.576,-5.013 2.9,-10.097 3.975,-15.254 1.074,-5.156 1.611,-10.384 1.611,-15.683 0,-12.175 -3.008,-21.592 -9.023,-28.252 -6.016,-6.66 -14.825,-11.279 -26.426,-13.858 -2.005,-0.429 -3.867,-0.644 -5.586,-0.644 -5.873,0 -11.315,1.683 -16.328,5.049 -5.013,3.366 -9.632,7.519 -13.858,12.461 -4.225,4.941 -7.913,10.241 -11.064,15.898 -3.151,5.658 -5.801,10.706 -7.949,15.147 -5.013,10.885 -9.274,22.307 -12.784,34.267 -3.509,11.96 -6.373,24.134 -8.593,36.524 -2.22,12.389 -3.832,24.814 -4.834,37.275 -1.003,12.461 -1.504,24.635 -1.504,36.523 0,11.459 0.537,23.239 1.611,35.342 1.074,12.103 2.793,24.1701 5.156,36.2013 2.364,12.0313 5.371,23.8477 9.024,35.4492 3.652,11.6016 7.985,22.5586 12.998,32.8711 3.151,6.44534 6.875,12.85484 11.172,19.22854 4.297,6.37366 9.131,12.06706 14.502,17.08006 5.371,5.013 11.351,9.0951 17.939,12.2461 6.589,3.1511 13.822,4.7266 21.699,4.7266 9.597,0 17.653,-1.8978 24.17,-5.6934 6.517,-3.7956 11.817,-8.7728 15.899,-14.9316 4.082,-6.1589 7.018,-13.17711 8.808,-21.05471 1.791,-7.87759 2.686,-15.97009 2.686,-24.27739 0,-8.164 -0.86,-16.2565 -2.578,-24.2773 -1.576,-7.8776 -2.972,-15.6836 -4.19,-23.418 -1.217,-7.7343 -1.826,-15.6835 -1.826,-23.8476 0,-6.0159 0.394,-12.0309 1.182,-18.0469 0.787,-6.016 2.112,-11.96 3.974,-17.832 2.722,-8.594 6.84,-17.152 12.354,-25.674 5.514,-8.522 11.709,-15.719 18.584,-21.592 1.289,-1.145 2.542,-2.005 3.76,-2.578 1.217,-0.573 2.685,-0.859 4.404,-0.859 3.294,0 6.051,1.11 8.271,3.33 2.22,2.22 3.33,4.977 3.33,8.271 0,1.719 -0.286,3.187 -0.859,4.405 -0.573,1.217 -1.432,2.47 -2.578,3.759 -2.865,3.295 -5.514,6.303 -7.949,9.024 -2.435,2.721 -4.691,5.478 -6.768,8.271 -2.077,2.793 -4.01,5.837 -5.801,9.131 -1.79,3.295 -3.33,7.09 -4.619,11.387 -1.575,4.727 -2.65,9.525 -3.222,14.395 -0.573,4.869 -0.86,9.739 -0.86,14.6089 0,6.1588 0.43,12.2103 1.289,18.1543 0.86,5.944 1.826,11.888 2.901,17.832 1.074,5.944 2.076,11.888 3.007,17.832 0.931,5.944 1.397,11.9239 1.397,17.9395 0,11.6016 -1.468,22.77343 -4.404,33.51561 -2.937,10.74219 -7.484,20.19529 -13.643,28.35939 -6.159,8.164 -13.893,14.7168 -23.203,19.6582 -9.31,4.9414 -20.41,7.4121 -33.301,7.4121 -10.312,0 -19.801,-1.862 -28.467,-5.5859 -8.665,-3.724 -16.578,-8.6296 -23.74,-14.7168 C 267.624,35.485 261.214,28.4668 255.557,20.5176 249.899,12.5684 244.993,4.29687 240.84,-4.29687 235.254,-15.4687 230.492,-27.2493 226.553,-39.6387 c -3.939,-12.3893 -7.162,-25.0293 -9.668,-37.9199 -2.507,-12.8906 -4.369,-25.8174 -5.586,-38.7794 -1.218,-12.962 -1.826,-25.674 -1.826,-38.135 0,-12.604 0.537,-25.602 1.611,-38.994 1.074,-13.392 2.829,-26.676 5.264,-39.853 2.435,-13.177 5.514,-26.175 9.238,-38.994 3.724,-12.819 8.307,-25.03 13.75,-36.631 3.151,-6.875 6.982,-13.965 11.494,-21.27 4.512,-7.304 9.668,-13.965 15.469,-19.98 5.801,-6.016 12.282,-10.957 19.443,-14.825 7.162,-3.867 14.968,-5.8 23.418,-5.8 z"
       fill="#9b9b9b"
       transform="translate(451.286,791)"
       id="path35" />
    <path
       d="m 224.941,-200.879 c -6.445,0 -12.461,-1.217 -18.046,-3.652 -5.586,-2.435 -10.492,-5.729 -14.717,-9.883 -4.226,-4.154 -7.556,-9.023 -9.991,-14.609 -2.434,-5.586 -3.652,-11.602 -3.652,-18.047 0,-6.446 1.218,-12.461 3.652,-18.047 2.435,-5.586 5.765,-10.492 9.991,-14.717 4.225,-4.225 9.131,-7.555 14.717,-9.99 5.585,-2.435 11.601,-3.653 18.046,-3.653 6.446,0 12.461,1.218 18.047,3.653 5.586,2.435 10.456,5.765 14.61,9.99 4.153,4.225 7.448,9.131 9.882,14.717 2.435,5.586 3.653,11.601 3.653,18.047 0,6.445 -1.218,12.461 -3.653,18.047 -2.434,5.586 -5.729,10.455 -9.882,14.609 -4.154,4.154 -9.024,7.448 -14.61,9.883 -5.586,2.435 -11.601,3.652 -18.047,3.652 z m 123.536,30.938 c -6.446,0 -12.461,-1.218 -18.047,-3.653 -5.586,-2.435 -10.492,-5.729 -14.717,-9.883 -4.225,-4.153 -7.555,-9.023 -9.99,-14.609 -2.435,-5.586 -3.653,-11.601 -3.653,-18.047 0,-6.445 1.218,-12.497 3.653,-18.154 2.435,-5.658 5.729,-10.563 9.882,-14.717 4.154,-4.154 9.06,-7.448 14.717,-9.883 5.658,-2.435 11.709,-3.652 18.155,-3.652 6.445,0 12.46,1.217 18.046,3.652 5.586,2.435 10.456,5.765 14.61,9.991 4.153,4.225 7.448,9.13 9.883,14.716 2.434,5.586 3.652,11.602 3.652,18.047 0,6.446 -1.218,12.461 -3.652,18.047 -2.435,5.586 -5.73,10.456 -9.883,14.609 -4.154,4.154 -9.024,7.448 -14.61,9.883 -5.586,2.435 -11.601,3.653 -18.046,3.653 z"
       fill="#e6e6e6"
       transform="translate(451.286,791)"
       id="path37" />
    <path
       d="m 256.953,-316.25 c -2.148,0 -4.368,0.179 -6.66,0.537 -2.292,0.358 -4.512,0.788 -6.66,1.289 -2.149,0.502 -4.154,0.931 -6.016,1.289 -1.862,0.358 -3.509,0.537 -4.941,0.537 -3.151,0 -5.908,-1.145 -8.272,-3.437 -2.363,-2.292 -3.545,-5.013 -3.545,-8.164 0,-2.722 0.824,-5.121 2.471,-7.197 1.647,-2.077 3.76,-3.474 6.338,-4.19 4.297,-1.146 8.737,-2.077 13.32,-2.793 4.584,-0.716 9.167,-1.074 13.75,-1.074 2.578,0 5.765,0.143 9.561,0.43 3.795,0.286 7.484,0.931 11.064,1.933 3.581,1.003 6.66,2.543 9.239,4.619 2.578,2.077 3.867,4.834 3.867,8.272 0,3.294 -1.146,6.051 -3.438,8.271 -2.291,2.22 -5.013,3.33 -8.164,3.33 -2.435,0 -5.622,-0.608 -9.56,-1.826 -3.939,-1.217 -8.057,-1.826 -12.354,-1.826 z m -24.277,100.117 c 4.297,0 8.307,-0.823 12.031,-2.471 3.724,-1.647 6.982,-3.867 9.775,-6.66 2.793,-2.793 4.978,-6.051 6.553,-9.775 1.576,-3.724 2.363,-7.734 2.363,-12.031 0,-4.297 -0.787,-8.308 -2.363,-12.032 -1.575,-3.723 -3.76,-6.982 -6.553,-9.775 -2.793,-2.793 -6.051,-5.013 -9.775,-6.66 -3.724,-1.647 -7.734,-2.471 -12.031,-2.471 -4.297,0 -8.343,0.824 -12.139,2.471 -3.795,1.647 -7.09,3.867 -9.883,6.66 -2.793,2.793 -4.977,6.052 -6.552,9.775 -1.576,3.724 -2.364,7.735 -2.364,12.032 0,4.297 0.824,8.307 2.471,12.031 1.647,3.724 3.867,6.982 6.66,9.775 2.793,2.793 6.052,5.013 9.776,6.66 3.723,1.648 7.734,2.471 12.031,2.471 z m 108.066,30.723 c 4.297,0 8.307,-0.788 12.031,-2.363 3.724,-1.576 6.983,-3.76 9.776,-6.553 2.793,-2.793 4.977,-6.052 6.553,-9.776 1.575,-3.724 2.363,-7.734 2.363,-12.031 0,-4.297 -0.788,-8.307 -2.363,-12.031 -1.576,-3.724 -3.76,-6.982 -6.553,-9.775 -2.793,-2.793 -6.052,-5.013 -9.776,-6.661 -3.724,-1.647 -7.734,-2.47 -12.031,-2.47 -4.297,0 -8.343,0.823 -12.139,2.47 -3.795,1.648 -7.089,3.868 -9.882,6.661 -2.793,2.793 -4.978,6.051 -6.553,9.775 -1.576,3.724 -2.363,7.734 -2.363,12.031 0,4.297 0.823,8.307 2.47,12.031 1.647,3.724 3.868,6.983 6.661,9.776 2.792,2.793 6.051,4.977 9.775,6.553 3.724,1.575 7.734,2.363 12.031,2.363 z m 44.688,-80.996 c 3.294,0 6.051,-1.11 8.271,-3.33 2.22,-2.22 3.33,-4.978 3.33,-8.272 0,-3.581 -1.36,-6.517 -4.082,-8.808 -3.294,-2.722 -6.911,-5.371 -10.849,-7.95 -3.939,-2.578 -8.057,-4.905 -12.354,-6.982 -4.297,-2.077 -8.701,-3.724 -13.213,-4.941 -4.512,-1.218 -8.916,-1.827 -13.213,-1.827 -3.294,0 -6.087,1.11 -8.379,3.33 -2.291,2.221 -3.437,4.978 -3.437,8.272 0,3.008 0.967,5.514 2.9,7.519 1.934,2.006 4.333,3.295 7.198,3.868 2.864,0.573 5.764,1.11 8.701,1.611 2.936,0.501 5.836,1.325 8.701,2.471 2.005,0.859 4.225,2.112 6.66,3.759 2.435,1.648 4.834,3.295 7.197,4.942 2.364,1.647 4.655,3.115 6.875,4.404 2.22,1.289 4.118,1.934 5.694,1.934 z"
       fill="#402a32"
       transform="translate(451.286,791)"
       id="path39" />
    <path
       d="m 150.498,-169.834 c 8.451,0 16.615,1.092 24.492,3.276 7.878,2.185 15.218,5.282 22.022,9.292 6.803,4.011 13.016,8.827 18.637,14.449 5.622,5.621 10.438,11.834 14.449,18.637 4.01,6.804 7.107,14.144 9.292,22.022 2.184,7.8774 3.276,16.0415 3.276,24.492 0,8.4505 -1.092,16.5967 -3.276,24.4385 -2.185,7.8418 -5.282,15.1823 -9.292,22.0214 -4.011,6.8392 -8.827,13.0697 -14.449,18.6915 -5.621,5.6217 -11.852,10.43778 -18.691,14.44819 -6.839,4.01042 -14.18,7.10775 -22.021,9.29201 -7.842,2.1842 -15.988,3.2764 -24.439,3.2764 -8.45,0 -16.597,-1.0922 -24.438,-3.2764 C 118.218,9.04134 110.877,5.94401 104.038,1.93359 97.1989,-2.07682 90.9684,-6.8929 85.3467,-12.5146 79.7249,-18.1364 74.9088,-24.3669 70.8984,-31.2061 c -4.0104,-6.8391 -7.1077,-14.1796 -9.292,-22.0214 -2.1842,-7.8418 -3.2763,-15.988 -3.2763,-24.4385 0,-8.4505 1.0921,-16.5967 3.2763,-24.438 2.1843,-7.842 5.2816,-15.183 9.292,-22.022 4.0104,-6.839 8.8265,-13.07 14.4483,-18.691 5.6217,-5.622 11.8522,-10.438 18.6913,-14.449 6.839,-4.01 14.18,-7.107 22.022,-9.292 7.841,-2.184 15.988,-3.276 24.438,-3.276 z"
       fill="#ffffff"
       transform="translate(693.286,834)"
       id="path41" />
    <path
       d="m 150.605,-185.303 c 9.883,0 19.408,1.271 28.575,3.814 9.166,2.542 17.742,6.159 25.727,10.849 7.985,4.691 15.254,10.313 21.807,16.866 6.553,6.552 12.174,13.803 16.865,21.753 4.691,7.949 8.325,16.525 10.903,25.727 2.579,9.2025 3.868,18.7452 3.868,28.628 0,9.8828 -1.289,19.4075 -3.868,28.5742 -2.578,9.1667 -6.212,17.7425 -10.903,25.7275 -4.691,7.9851 -10.312,15.25395 -16.865,21.80668 -6.553,6.55274 -13.822,12.17452 -21.807,16.86522 -7.985,4.6908 -16.561,8.3252 -25.727,10.9033 -9.167,2.5782 -18.692,3.8672 -28.575,3.8672 -9.882,0 -19.407,-1.289 -28.574,-3.8672 C 112.865,23.6328 104.307,19.9984 96.3574,15.3076 88.4082,10.6169 81.1393,4.99512 74.5508,-1.55762 67.9622,-8.11035 62.3405,-15.3792 57.6855,-23.3643 c -4.6549,-7.985 -8.2714,-16.5608 -10.8496,-25.7275 -2.5781,-9.1667 -3.8672,-18.6914 -3.8672,-28.5742 0,-9.8828 1.2891,-19.4076 3.8672,-28.574 2.5782,-9.167 6.1947,-17.725 10.8496,-25.674 4.655,-7.949 10.2767,-15.218 16.8653,-21.807 6.5885,-6.588 13.8574,-12.21 21.8066,-16.865 7.9496,-4.655 16.5076,-8.271 25.6736,-10.85 9.167,-2.578 18.692,-3.867 28.574,-3.867 z m 84.541,107.637 c 0,-7.7344 -1.002,-15.2002 -3.007,-22.397 -2.006,-7.198 -4.852,-13.93 -8.54,-20.196 -3.689,-6.266 -8.111,-11.959 -13.267,-17.08 -5.156,-5.12 -10.868,-9.507 -17.134,-13.159 -6.266,-3.652 -12.998,-6.481 -20.195,-8.486 -7.197,-2.006 -14.663,-3.008 -22.398,-3.008 -9.166,0 -18.082,1.45 -26.748,4.35 -8.665,2.901 -16.65,7.144 -23.9547,12.73 v 0.107 L 217.959,-26.8555 c 5.586,-7.3047 9.847,-15.3076 12.783,-24.0088 2.936,-8.7011 4.404,-17.635 4.404,-26.8017 z m -168.9741,0 c 0,7.7344 1.0026,15.2002 3.0078,22.3974 2.0052,7.1973 4.8519,13.9291 8.54,20.1954 3.6882,6.2662 8.0925,11.9775 13.2129,17.1337 5.1205,5.1563 10.8134,9.5785 17.0804,13.26665 6.266,3.688149 12.998,6.53483 20.195,8.54004 7.197,2.00521 14.663,3.00781 22.397,3.00781 9.167,0 18.101,-1.50391 26.802,-4.51172 8.701,-3.007811 16.74,-7.23307 24.116,-12.67578 v -0.1074 L 83.4668,-128.477 h -0.1074 c -5.586,7.377 -9.847,15.398 -12.7832,24.063 -2.9362,8.6653 -4.4043,17.5813 -4.4043,26.748 z"
       fill="#f8312f"
       id="path43"
       transform="translate(693.286,834)" />
  </g>
</svg>
