<?xml version="1.0" encoding="UTF-8" standalone="no"?>
<svg
   width="32"
   height="32"
   overflow="hidden"
   version="1.1"
   id="svg47"
   sodipodi:docname="显示 Clippy .svg"
   inkscape:version="1.1.2 (b8e25be833, 2022-02-05)"
   xmlns:inkscape="http://www.inkscape.org/namespaces/inkscape"
   xmlns:sodipodi="http://sodipodi.sourceforge.net/DTD/sodipodi-0.dtd"
   xmlns="http://www.w3.org/2000/svg"
   xmlns:svg="http://www.w3.org/2000/svg">
  <sodipodi:namedview
     id="namedview49"
     pagecolor="#ffffff"
     bordercolor="#666666"
     borderopacity="1.0"
     inkscape:pageshadow="2"
     inkscape:pageopacity="0.0"
     inkscape:pagecheckerboard="0"
     showgrid="false"
     width="32px"
     inkscape:zoom="3.5582879"
     inkscape:cx="57.47146"
     inkscape:cy="95.411054"
     inkscape:window-width="1920"
     inkscape:window-height="991"
     inkscape:window-x="-9"
     inkscape:window-y="-9"
     inkscape:window-maximized="1"
     inkscape:current-layer="svg47" />
  <defs
     id="defs33">
    <clipPath
       id="clip0">
      <rect
         x="187"
         y="230"
         width="1133"
         height="925"
         id="rect30" />
    </clipPath>
    <clipPath
       id="clip0-7">
      <rect
         x="550"
         y="405"
         width="3300"
         height="1002"
         id="rect26" />
    </clipPath>
  </defs>
  <g
     clip-path="url(#clip0-7)"
     transform="matrix(0.10582584,0,0,0.10582584,-219.39917,-98.70948)"
     id="g37">
    <path
       d="m 193.225,-231.763 c 1.164,0 2.305,0.09 3.424,0.269 1.119,0.179 2.216,0.358 3.29,0.537 10.563,2.238 18.821,6.759 24.774,13.562 5.953,6.803 8.93,15.71 8.93,26.721 0,4.118 -0.381,8.169 -1.142,12.152 -0.761,3.984 -1.768,7.945 -3.021,11.884 -3.939,12.174 -6.982,24.684 -9.131,37.53 -2.148,12.846 -3.223,25.67 -3.223,38.4708 0,3.4912 0.179,6.9824 0.538,10.4736 0.358,3.4912 0.76,6.9825 1.208,10.4737 0.448,3.4912 0.85,6.96 1.209,10.4065 0.358,3.4464 0.537,6.9152 0.537,10.4065 0,3.6702 -0.381,7.1614 -1.142,10.4736 -0.761,3.3122 -1.992,6.1991 -3.692,8.6609 -1.701,2.4617 -3.984,4.4087 -6.848,5.841 -2.865,1.4323 -6.356,2.1485 -10.474,2.1485 -5.103,0 -9.467,-1.1414 -13.092,-3.4241 -3.626,-2.2827 -6.714,-5.304 -9.265,-9.0637 -2.552,-3.7598 -4.588,-8.0119 -6.11,-12.7564 -1.522,-4.7444 -2.708,-9.6008 -3.558,-14.5691 -0.851,-4.9682 -1.41,-9.8246 -1.679,-14.569 -0.268,-4.7445 -0.403,-8.9519 -0.403,-12.6221 0,-1.6113 -0.022,-3.4241 -0.067,-5.4382 -0.044,-2.0142 0.135,-3.9165 0.537,-5.7068 0.403,-1.7907 1.164,-3.2897 2.283,-4.4987 1.119,-1.208 2.842,-1.812 5.17,-1.812 2.059,0 3.715,0.805 4.968,2.417 1.253,1.611 1.88,3.357 1.88,5.2364 0,1.7009 -0.045,3.4017 -0.134,5.1026 -0.09,1.7008 -0.135,3.4464 -0.135,5.2368 0,2.0589 0.068,4.7668 0.202,8.1238 0.134,3.3569 0.447,6.96 0.94,10.8093 0.492,3.8493 1.163,7.7433 2.014,11.6821 0.85,3.9388 2.014,7.4748 3.491,10.6079 1.477,3.1332 3.268,5.7068 5.371,7.721 2.104,2.0141 4.633,3.0212 7.587,3.0212 1.88,0 3.357,-0.3804 4.431,-1.1413 1.074,-0.7609 1.835,-1.7456 2.283,-2.9541 0.447,-1.2085 0.716,-2.5513 0.805,-4.0284 0.09,-1.477 0.135,-2.9764 0.135,-4.4982 0,-3.4913 -0.179,-6.9377 -0.537,-10.3394 -0.358,-3.4017 -0.761,-6.8481 -1.209,-10.3394 -0.447,-3.4912 -0.85,-6.9824 -1.208,-10.4736 -0.358,-3.4912 -0.538,-7.0719 -0.538,-10.7422 0,-6.4453 0.291,-13.1145 0.873,-20.0075 0.582,-6.893 1.455,-13.786 2.619,-20.679 1.163,-6.892 2.529,-13.696 4.095,-20.41 1.567,-6.714 3.379,-13.159 5.438,-19.336 0.985,-3.133 1.813,-6.311 2.485,-9.533 0.671,-3.223 1.007,-6.49 1.007,-9.803 0,-7.609 -1.88,-13.494 -5.64,-17.657 -3.76,-4.163 -9.265,-7.05 -16.516,-8.661 -1.253,-0.268 -2.417,-0.403 -3.491,-0.403 -3.671,0 -7.072,1.052 -10.205,3.156 -3.134,2.104 -6.021,4.7 -8.661,7.788 -2.641,3.088 -4.946,6.4 -6.916,9.936 -1.969,3.536 -3.625,6.692 -4.968,9.467 -3.133,6.803 -5.796,13.942 -7.989,21.417 -2.194,7.475 -3.984,15.084 -5.371,22.827 -1.388,7.744 -2.395,15.509 -3.022,23.297 -0.626,7.789 -0.94,15.398 -0.94,22.8276 0,7.1615 0.336,14.5243 1.007,22.0886 0.672,7.5643 1.746,15.1062 3.223,22.6258 1.477,7.5195 3.357,14.9047 5.64,22.1557 2.282,7.251 4.99,14.0991 8.124,20.54444 1.969,4.02832 4.296,8.03426 6.982,12.01782 2.685,3.98356 5.707,7.54194 9.064,10.67504 3.357,3.1331 7.094,5.6844 11.212,7.6538 4.118,1.9694 8.638,2.9541 13.562,2.9541 5.998,0 11.033,-1.1861 15.106,-3.5583 4.073,-2.3723 7.385,-5.483 9.937,-9.3323 2.551,-3.84929 4.386,-8.23568 5.505,-13.15918 1.119,-4.9235 1.678,-9.98132 1.678,-15.17332 0,-5.1026 -0.537,-10.1603 -1.611,-15.1734 -0.985,-4.9235 -1.857,-9.8022 -2.618,-14.6362 -0.761,-4.834 -1.142,-9.8022 -1.142,-14.9048 0,-3.7597 0.246,-7.5195 0.739,-11.2793 0.492,-3.7597 1.32,-7.4747 2.484,-11.145 1.701,-5.3711 4.274,-10.7198 7.721,-16.0461 3.446,-5.326 7.318,-9.825 11.615,-13.495 0.806,-0.716 1.589,-1.253 2.35,-1.611 0.761,-0.358 1.678,-0.537 2.752,-0.537 2.059,0 3.783,0.693 5.17,2.081 1.388,1.388 2.081,3.111 2.081,5.17 0,1.074 -0.179,1.991 -0.537,2.752 -0.358,0.761 -0.895,1.545 -1.611,2.35 -1.79,2.059 -3.446,3.939 -4.968,5.6398 -1.522,1.7009 -2.932,3.4241 -4.23,5.1697 -1.298,1.7456 -2.507,3.6479 -3.626,5.7068 -1.119,2.0589 -2.081,4.4311 -2.886,7.1167 -0.985,2.9541 -1.657,5.953 -2.015,8.9966 -0.358,3.0436 -0.537,6.0872 -0.537,9.1308 0,3.8493 0.269,7.6315 0.806,11.3465 0.537,3.715 1.141,7.43 1.813,11.145 0.671,3.715 1.298,7.43 1.88,11.145 0.581,3.715 0.872,7.4524 0.872,11.2122 0,7.25093 -0.917,14.23335 -2.752,20.94722 -1.835,6.71388 -4.678,12.62208 -8.527,17.72458 -3.849,5.1026 -8.683,9.198 -14.502,12.2864 -5.819,3.0884 -12.756,4.6326 -20.813,4.6326 -6.445,0 -12.376,-1.1638 -17.792,-3.4912 -5.415,-2.3275 -10.361,-5.3935 -14.837,-9.198 -4.476,-3.8046 -8.482,-8.191 -12.018,-13.1592 -3.536,-4.96828 -6.602,-10.13795 -9.198,-15.50905 -3.491,-6.98242 -6.468,-14.34525 -8.93,-22.08865 -2.461,-7.7433 -4.475,-15.6433 -6.042,-23.6999 -1.567,-8.0567 -2.73,-16.1357 -3.491,-24.2371 -0.761,-8.1014 -1.142,-16.0461 -1.142,-23.8342 0,-7.8776 0.336,-16.0016 1.007,-24.3716 0.672,-8.37 1.768,-16.672 3.29,-24.908 1.522,-8.236 3.447,-16.36 5.774,-24.372 2.328,-8.011 5.192,-15.643 8.594,-22.894 1.969,-4.297 4.364,-8.728 7.184,-13.293 2.82,-4.566 6.042,-8.728 9.668,-12.488 3.625,-3.76 7.676,-6.848 12.152,-9.265 4.476,-2.417 9.355,-3.626 14.636,-3.626 z"
       fill="#9b9b9b"
       transform="translate(2011.22,1179)"
       id="path31" />
    <path
       d="m 140.588,-125.549 c -4.028,0 -7.788,-0.761 -11.279,-2.283 -3.491,-1.522 -6.557,-3.581 -9.198,-6.177 -2.641,-2.596 -4.722,-5.639 -6.244,-9.131 -1.522,-3.491 -2.283,-7.251 -2.283,-11.279 0,-4.028 0.761,-7.788 2.283,-11.279 1.522,-3.491 3.603,-6.557 6.244,-9.198 2.641,-2.641 5.707,-4.722 9.198,-6.244 3.491,-1.522 7.251,-2.283 11.279,-2.283 4.029,0 7.788,0.761 11.28,2.283 3.491,1.522 6.534,3.603 9.131,6.244 2.596,2.641 4.654,5.707 6.176,9.198 1.522,3.491 2.283,7.251 2.283,11.279 0,4.028 -0.761,7.788 -2.283,11.279 -1.522,3.492 -3.58,6.535 -6.176,9.131 -2.597,2.596 -5.64,4.655 -9.131,6.177 -3.492,1.522 -7.251,2.283 -11.28,2.283 z m 77.21,19.336 c -4.029,0 -7.788,-0.761 -11.279,-2.283 -3.492,-1.522 -6.558,-3.581 -9.198,-6.177 -2.641,-2.596 -4.723,-5.639 -6.244,-9.131 -1.522,-3.491 -2.283,-7.251 -2.283,-11.279 0,-4.028 0.761,-7.81 2.283,-11.346 1.521,-3.536 3.58,-6.602 6.176,-9.198 2.596,-2.596 5.662,-4.655 9.198,-6.177 3.536,-1.522 7.318,-2.283 11.347,-2.283 4.028,0 7.788,0.761 11.279,2.283 3.491,1.522 6.535,3.603 9.131,6.244 2.596,2.641 4.655,5.707 6.177,9.198 1.522,3.491 2.282,7.251 2.282,11.279 0,4.028 -0.76,7.788 -2.282,11.279 -1.522,3.492 -3.581,6.535 -6.177,9.131 -2.596,2.596 -5.64,4.655 -9.131,6.177 -3.491,1.522 -7.251,2.283 -11.279,2.283 z"
       fill="#e6e6e6"
       transform="translate(2011.22,1179)"
       id="path33" />
    <path
       d="m 160.596,-197.656 c -1.343,0 -2.731,0.112 -4.163,0.335 -1.432,0.224 -2.82,0.493 -4.163,0.806 -1.342,0.313 -2.596,0.582 -3.759,0.806 -1.164,0.224 -2.193,0.335 -3.089,0.335 -1.969,0 -3.692,-0.716 -5.169,-2.148 -1.477,-1.432 -2.216,-3.133 -2.216,-5.102 0,-1.701 0.515,-3.201 1.544,-4.499 1.03,-1.298 2.35,-2.171 3.961,-2.618 2.686,-0.716 5.461,-1.298 8.326,-1.746 2.864,-0.447 5.729,-0.671 8.593,-0.671 1.612,0 3.604,0.089 5.976,0.268 2.372,0.179 4.677,0.582 6.915,1.209 2.238,0.627 4.163,1.589 5.774,2.887 1.611,1.298 2.417,3.021 2.417,5.17 0,2.058 -0.716,3.782 -2.148,5.169 -1.433,1.388 -3.134,2.081 -5.103,2.081 -1.522,0 -3.514,-0.38 -5.975,-1.141 -2.462,-0.761 -5.036,-1.141 -7.721,-1.141 z m -15.174,62.573 c 2.686,0 5.192,-0.515 7.52,-1.544 2.327,-1.03 4.364,-2.417 6.109,-4.163 1.746,-1.745 3.111,-3.782 4.096,-6.109 0.985,-2.328 1.477,-4.834 1.477,-7.52 0,-2.685 -0.492,-5.192 -1.477,-7.519 -0.985,-2.328 -2.35,-4.364 -4.096,-6.11 -1.745,-1.746 -3.782,-3.133 -6.109,-4.163 -2.328,-1.029 -4.834,-1.544 -7.52,-1.544 -2.685,0 -5.214,0.515 -7.586,1.544 -2.373,1.03 -4.431,2.417 -6.177,4.163 -1.746,1.746 -3.111,3.782 -4.096,6.11 -0.984,2.327 -1.477,4.834 -1.477,7.519 0,2.686 0.515,5.192 1.545,7.52 1.029,2.327 2.417,4.364 4.162,6.109 1.746,1.746 3.782,3.133 6.11,4.163 2.327,1.029 4.834,1.544 7.519,1.544 z m 67.542,19.202 c 2.685,0 5.192,-0.493 7.519,-1.477 2.328,-0.985 4.364,-2.35 6.11,-4.096 1.746,-1.745 3.111,-3.782 4.095,-6.109 0.985,-2.328 1.477,-4.834 1.477,-7.52 0,-2.686 -0.492,-5.192 -1.477,-7.52 -0.984,-2.327 -2.349,-4.364 -4.095,-6.109 -1.746,-1.746 -3.782,-3.133 -6.11,-4.163 -2.327,-1.029 -4.834,-1.544 -7.519,-1.544 -2.686,0 -5.215,0.515 -7.587,1.544 -2.372,1.03 -4.431,2.417 -6.177,4.163 -1.745,1.745 -3.11,3.782 -4.095,6.109 -0.985,2.328 -1.477,4.834 -1.477,7.52 0,2.686 0.515,5.192 1.544,7.52 1.03,2.327 2.417,4.364 4.163,6.109 1.745,1.746 3.782,3.111 6.109,4.096 2.328,0.984 4.834,1.477 7.52,1.477 z m 27.93,-50.623 c 2.058,0 3.782,-0.694 5.169,-2.081 1.388,-1.388 2.082,-3.111 2.082,-5.17 0,-2.238 -0.851,-4.073 -2.552,-5.505 -2.059,-1.701 -4.319,-3.357 -6.781,-4.969 -2.462,-1.611 -5.035,-3.065 -7.721,-4.364 -2.685,-1.298 -5.438,-2.327 -8.258,-3.088 -2.82,-0.761 -5.572,-1.141 -8.258,-1.141 -2.059,0 -3.804,0.694 -5.237,2.081 -1.432,1.388 -2.148,3.111 -2.148,5.17 0,1.88 0.604,3.446 1.813,4.699 1.208,1.254 2.708,2.059 4.498,2.417 1.79,0.359 3.603,0.694 5.438,1.008 1.835,0.313 3.648,0.828 5.438,1.544 1.254,0.537 2.641,1.32 4.163,2.35 1.522,1.029 3.021,2.058 4.498,3.088 1.477,1.029 2.91,1.947 4.297,2.753 1.388,0.805 2.574,1.208 3.559,1.208 z"
       fill="#402a32"
       transform="translate(2011.22,1179)"
       id="path35-7" />
  </g>
</svg>
